# xmcd
#
# Track frame offsets: 
#        150
#        17132
#        35505
#        57807
#        76330
#        91987
#        101617
#        124680
#        136945
#        160562
#        182087
#        198497
#        222290
#        237760
#        257584
#        273320
#        275060
#        297522
#        301987
#
# Disc length: 4189 seconds
#
# Revision: 1
# Processed by: cddbd v1.5.2PL0 Copyright (c) Steve Scherf et al.
# Submitted via: ExactAudioCopyFreeDBPlugin 1.0
#
DISCID=0b105b13
DTITLE=Gergor Hilden - Sweet Rain
DYEAR=2001
DGENRE=Instrumental
TTITLE0=Ocean Breeze Motel
TTITLE1=Slabo Day
TTITLE2=The Ghetto
TTITLE3=Song For Larry C.
TTITLE4=Little Funky Thang
TTITLE5=Apostle
TTITLE6='59 Blues Affair
TTITLE7=Rock Candy
TTITLE8=Ode to Billy
TTITLE9=Proud Pinto
TTITLE10=New York Blues
TTITLE11=Goodbye Pork Pie Hat
TTITLE12=Westcoast Blues
TTITLE13=Crazy Town Shuffle
TTITLE14=Sweet Rain
TTITLE15=Welcome
TTITLE16=Beale Street Strut
TTITLE17=Intro
TTITLE18=Harlem Stomp
EXTD=
EXTT0=
EXTT1=
EXTT2=
EXTT3=
EXTT4=
EXTT5=
EXTT6=
EXTT7=
EXTT8=
EXTT9=
EXTT10=
EXTT11=
EXTT12=
EXTT13=
EXTT14=
EXTT15=
EXTT16=
EXTT17=
EXTT18=
PLAYORDER=
